<svg width="40" height="40" viewBox="0 0 40 40" fill="none" xmlns="http://www.w3.org/2000/svg">
<g clip-path="url(#clip0_26_315)">
<path d="M20.8342 0.890015V10.8311C23.3683 10.7229 25.8093 10.127 28.0578 9.08417C26.4066 4.54847 23.7823 1.39613 20.8342 0.890015Z" fill="white"/>
<path d="M6.4494 5.26459C7.64412 6.45685 8.97636 7.45614 10.398 8.28184C11.7375 4.66012 13.6934 1.87511 16.0159 0.376465C12.3701 1.11279 9.08444 2.8402 6.4494 5.26459Z" fill="white"/>
<path d="M23.9839 0.376587C26.3063 1.87506 28.2622 4.65999 29.6018 8.28146C31.0237 7.45575 32.3571 6.45832 33.552 5.26615C30.9167 2.841 27.6306 1.113 23.9839 0.376587Z" fill="white"/>
<path d="M10.1396 20.8344C10.21 23.8578 10.6611 26.7244 11.3992 29.2558C13.8197 28.1591 16.4454 27.5328 19.1658 27.4265V20.8344H10.1396Z" fill="white"/>
<path d="M11.925 30.8696C13.575 35.4301 16.2073 38.602 19.1657 39.11V29.1152C16.6245 29.2236 14.1777 29.822 11.925 30.8696Z" fill="white"/>
<path d="M34.732 6.44604C33.3494 7.82586 31.8048 8.98325 30.1448 9.91034C30.9684 12.6583 31.4587 15.7981 31.5287 19.1657H40C39.799 14.2659 37.8389 9.82114 34.732 6.44604Z" fill="white"/>
<path d="M5.26839 6.44543C2.16125 9.82087 0.201094 14.2657 0 19.1658H8.47108C8.54116 15.7986 9.03137 12.6587 9.85496 9.91109C8.195 8.98382 6.65125 7.8255 5.26839 6.44543Z" fill="white"/>
<path d="M11.4134 10.6968C10.6671 13.24 10.2105 16.1234 10.1396 19.1657H19.1658V12.5197C16.4509 12.4137 13.8301 11.7895 11.4134 10.6968Z" fill="white"/>
<path d="M11.9419 9.08459C14.1901 10.1273 16.631 10.7229 19.1657 10.831V0.890015C16.2174 1.39622 13.593 4.54872 11.9419 9.08459Z" fill="white"/>
<path d="M8.47108 20.8344H0C0.200501 25.7207 2.14966 30.1548 5.24181 33.5267C6.6273 32.1389 8.17553 30.9751 9.84057 30.0434C9.02536 27.3068 8.54074 24.1828 8.47108 20.8344Z" fill="white"/>
<path d="M31.5287 20.8344C31.4591 24.183 30.9744 27.307 30.1591 30.0439C31.8196 30.973 33.3646 32.1323 34.7469 33.5145L34.7595 33.5248C37.8496 30.1532 39.7996 25.7196 40.0001 20.8344H31.5287Z" fill="white"/>
<path d="M33.5674 34.6942C32.3731 33.5 31.0393 32.5017 29.6174 31.6742C28.2775 35.317 26.3158 38.119 23.9839 39.6236C27.6438 38.8845 30.9415 37.1473 33.5808 34.7082L33.5674 34.6942Z" fill="white"/>
<path d="M28.5865 10.6965C26.1695 11.7894 23.5485 12.4137 20.8342 12.5198V19.1658H29.8602C29.7893 16.1233 29.3329 13.2399 28.5865 10.6965Z" fill="white"/>
<path d="M10.3822 31.6736C8.95535 32.504 7.61786 33.5076 6.42035 34.7077C9.06038 37.1465 12.3563 38.8845 16.0159 39.6235C13.684 38.1189 11.7223 35.3166 10.3822 31.6736Z" fill="white"/>
<path d="M20.8342 29.1152V39.1101C23.7924 38.6021 26.4246 35.4304 28.0747 30.8701C25.8217 29.8224 23.3748 29.2237 20.8342 29.1152Z" fill="white"/>
<path d="M20.8342 20.8344V27.4265C23.5538 27.5328 26.1799 28.1593 28.6007 29.2561C29.3388 26.7244 29.7898 23.8579 29.8602 20.8344H20.8342Z" fill="white"/>
</g>
<defs>
<clipPath id="clip0_26_315">
<rect width="40" height="40" fill="white"/>
</clipPath>
</defs>
</svg>
