<svg width="60" height="60" viewBox="0 0 60 60" fill="none" xmlns="http://www.w3.org/2000/svg">
<path d="M43.125 0H16.875C7.5 0 0 7.5 0 16.875V43.125C0 52.5 7.5 60 16.875 60H43.125C52.5 60 60 52.5 60 43.125V16.875C60 7.5 52.5 0 43.125 0ZM22.5 46.875C22.5 48 21.75 48.75 20.625 48.75H13.125C12 48.75 11.25 48 11.25 46.875V24.375C11.25 23.25 12 22.5 13.125 22.5H20.625C21.75 22.5 22.5 23.25 22.5 24.375V46.875ZM16.875 20.625C13.6875 20.625 11.25 18.1875 11.25 15C11.25 11.8125 13.6875 9.375 16.875 9.375C20.0625 9.375 22.5 11.8125 22.5 15C22.5 18.1875 20.0625 20.625 16.875 20.625ZM48.75 46.875C48.75 48 48 48.75 46.875 48.75H41.25C40.125 48.75 39.375 48 39.375 46.875V40.3125V38.4375V34.6875C39.375 33.1875 38.0625 31.875 36.5625 31.875C35.0625 31.875 33.75 33.1875 33.75 34.6875V38.4375V40.3125V46.875C33.75 48 33 48.75 31.875 48.75H26.25C25.125 48.75 24.375 48 24.375 46.875V24.375C24.375 23.25 25.125 22.5 26.25 22.5H33.75C34.3125 22.5 34.6875 22.6875 35.0625 23.0625C36.1875 22.6875 37.3125 22.5 38.4375 22.5C44.0625 22.5 48.75 27.1875 48.75 32.8125V46.875Z" fill="white"/>
</svg>
